<svg xmlns="http://www.w3.org/2000/svg" xmlns:xlink="http://www.w3.org/1999/xlink" width="412" height="412" viewBox="0 0 412 412">
  <defs>
    <filter id="Path_382" x="0" y="0" width="412" height="412" filterUnits="userSpaceOnUse">
      <feOffset dy="5" input="SourceAlpha"/>
      <feGaussianBlur stdDeviation="2" result="blur"/>
      <feFlood flood-opacity="0.051"/>
      <feComposite operator="in" in2="blur"/>
      <feComposite in="SourceGraphic"/>
    </filter>
  </defs>
  <g id="Group_403" data-name="Group 403" transform="translate(-2338 -4540)">
    <g id="Group_384" data-name="Group 384" transform="translate(2339 4754)">
      <g transform="matrix(1, 0, 0, 1, -1, -214)" filter="url(#Path_382)">
        <path id="Path_382-2" data-name="Path 382" d="M200,0C310.457,0,400,89.543,400,200S310.457,400,200,400,0,310.457,0,200,89.543,0,200,0Z" transform="translate(6 1)" fill="#2de115"/>
      </g>
      <g id="Group_405" data-name="Group 405" transform="translate(-512.832 -4335.81)">
        <path id="Path_392" data-name="Path 392" d="M804.8,4336.279c-11.841.729-27.412,12.558-42.428,19.361-18.414,8.33-47.069,1.635-47.072,1.635,4.43-2.076,22.391-6.354,26.007-7.947,19.229-8.458,17.59-26.1,8.435-25.947-12.092.2-19.2,3.174-43.342,6.466-18.3,2.486-39.941,1.578-50.321,5.54-14.652,5.6-38.245,43.258-38.245,43.258l36.484,35.365s22.595-22.251,33.583-22.251c25.051,0,26.06-.345,49.313-1.6,9.9-.529,11.951-.935,17.616-2.842,30.15-10.193,62.518-37.337,63.113-40.6C819.312,4339.148,811.042,4335.89,804.8,4336.279Z" transform="translate(0 10.753)" fill="#fff"/>
        <path id="Path_393" data-name="Path 393" d="M651.014,4321.42a3.513,3.513,0,0,0,3.339.259c19.53-8.773,39.33-8.773,58.856,0a3.591,3.591,0,0,0,2.884,0c19.528-8.773,39.33-8.773,58.854,0a3.51,3.51,0,0,0,4.943-3.2v-87.357a3.449,3.449,0,0,0-2.094-3.216,77.588,77.588,0,0,0-31.933-7.1,76.637,76.637,0,0,0-28.162,5.518v6.423a3.052,3.052,0,1,1-6.1,0v-6.423a76.545,76.545,0,0,0-28.153-5.518,77.666,77.666,0,0,0-31.941,7.1,3.873,3.873,0,0,0-2.089,3.216v87.357A3.487,3.487,0,0,0,651.014,4321.42Zm94.516-62.913a6.9,6.9,0,1,1-6.9,6.9A6.9,6.9,0,0,1,745.53,4258.508Zm-5.5,17.225-16.2,16.2v-9.729l11.338-11.338A11.762,11.762,0,0,0,740.035,4275.732Zm-7.864-28.52,7.864,7.863a11.765,11.765,0,0,0-4.864,4.865l-5.642-5.643Zm-9.7-12.364q7.6,2.834,4.855,10.2l-18.978,50.911q-7.6-2.832-4.828-10.275Zm-15.372,4.023v9.729l-11.338,11.339a11.767,11.767,0,0,0-4.864-4.865Zm-5.781,37.554-2.642,7.086-7.78-7.781a11.764,11.764,0,0,0,4.864-4.863ZM685.4,4258.508a6.9,6.9,0,1,1-6.9,6.9A6.9,6.9,0,0,1,685.4,4258.508Zm-28.974,43.382a73.184,73.184,0,0,1,27.017-5.316,74.142,74.142,0,0,1,30.494,6.788,1.756,1.756,0,0,0,1.427,0,74.154,74.154,0,0,1,30.5-6.788,73.149,73.149,0,0,1,27.01,5.316v11.341a75.918,75.918,0,0,0-58.225,1.42,75.913,75.913,0,0,0-58.222-1.42Z" transform="translate(3.309)" fill="#fff"/>
      </g>
    </g>
  </g>
</svg>
