<svg height="511pt" viewBox="-74 1 511 511.99957" width="511pt" xmlns="http://www.w3.org/2000/svg"><path d="m225.453125 365.722656c0 13.285156-7.886719 24.050782-17.621094 24.050782h-51.609375c-9.734375 0-17.625-10.765626-17.625-24.050782v-89.332031c0-13.28125 7.890625-24.046875 17.625-24.046875h51.609375c9.734375 0 17.621094 10.765625 17.621094 24.046875zm0 0" fill="#ffd0c6"/><path d="m362.558594 476.003906-23.882813-99.980468c-7.496093-24.695313-32.691406-55.941407-73.019531-55.941407h-40.1875l-.0625.09375c-20.679688 30.863281-66.191406 30.816407-86.808594-.09375h-40.386718c-40.328126 0-62.707032 27.277344-73.019532 55.941407l-23.882812 99.980468c-4.390625 18.371094 9.652344 35.996094 28.679687 35.996094h82.480469l69.554688-25.984375 69.558593 25.984375h82.296875c19.027344 0 33.070313-17.625 28.679688-35.996094zm0 0" fill="#787ebe"/><path d="m112.46875 512c0-38.457031 31.144531-69.632812 69.554688-69.632812 38.414062 0 69.558593 31.175781 69.558593 69.632812zm0 0" fill="#8ed7f5"/><path d="m362.558594 476.003906-23.882813-99.980468c-7.496093-24.695313-32.691406-55.941407-73.019531-55.941407h-40.1875l-.019531.03125c39.574219.65625 64.324219 31.476563 71.742187 55.910157l23.882813 99.980468c4.386719 18.371094-9.652344 35.996094-28.679688 35.996094h41.484375c19.027344 0 33.070313-17.625 28.679688-35.996094zm0 0" fill="#5a69b4"/><path d="m285.199219 129.3125c-1.308594-.132812-2.605469.058594-3.882813.53125-5.320312-65.410156-38.785156-115.742188-99.382812-115.742188-6.359375 0-12.417969.5625-18.179688 1.632813 105.339844 31.085937 100.515625 226.40625 0 266.007813 5.761719 1.066406 11.816406 1.640624 18.179688 1.640624 53.460937 0 85.796875-39.175781 96.332031-93.308593.234375.042969.464844.082031.703125.105469 8.5625.871093 16.90625-12.042969 18.625-28.855469s-3.832031-31.144531-12.394531-32.011719zm0 0" fill="#ffd0c6"/><path d="m286.882812 129.671875c-4.007812 31.863281-18.90625-76.058594-98.507812-76.03125-116.699219.042969-107.25 83.230469-110.808594 75.871094-7.929687 1.933593-12.9375 15.734375-11.292968 31.8125 1.71875 16.8125 10.0625 29.726562 18.625 28.855469.234374-.023438.46875-.0625.703124-.105469 10.535157 54.132812 42.871094 93.304687 96.332032 93.304687 53.460937 0 85.796875-39.171875 96.332031-93.304687.234375.042969.464844.082031.703125.105469 8.5625.871093 16.90625-12.046876 18.625-28.855469 1.605469-15.679688-3.121094-29.199219-10.710938-31.652344zm0 0" fill="#fee2d8"/><path d="m91.890625 151.648438s18.492187-38.339844 30.375-51.5625c11.886719-13.21875 6.605469-26.441407 6.605469-26.441407s15.589844 35.699219 49.394531 38.34375c33.808594 2.640625 76.070313 5.285157 83.992187 23.796875 7.925782 18.507813 7.925782 51.5625 7.925782 51.5625s43.589844-88.59375-5.273438-140.15625c-48.863281-51.5625-100.378906-51.855468-122.832031-42.5-12.785156 5.324219-15.847656 25.324219-15.847656 25.324219-33.015625-18.511719-89.804688 54.207031-34.339844 121.632813zm0 0" fill="#8a7e88"/><path d="m264.910156 47.191406c-46.253906-48.804687-94.875-51.675781-118.984375-43.910156 21.625 5.457031 46.4375 18.414062 70.601563 43.910156 19.945312 21.046875 24.484375 48.265625 22.871094 73.105469 11.21875 3.339844 19.726562 8.171875 22.859374 15.488281 7.925782 18.507813 7.925782 51.558594 7.925782 51.558594s43.589844-88.589844-5.273438-140.152344zm0 0" fill="#635562"/><path d="m286.882812 129.671875c-4.007812 31.863281-16.699218 57.675781-16.699218 57.675781s0-33.054687-7.925782-51.5625c-3.117187-7.285156-11.566406-12.105468-22.714843-15.445312 8.019531 64.789062-18.152344 138.695312-75.789063 161.398437 5.765625 1.070313 11.820313 1.640625 18.179688 1.640625 53.460937 0 85.800781-39.171875 96.332031-93.304687.234375.042969.46875.082031.703125.105469 8.566406.871093 16.90625-12.046876 18.625-28.855469 1.605469-15.679688-3.121094-29.199219-10.710938-31.652344zm0 0" fill="#ffd0c6"/></svg>