<svg height="512pt" viewBox="-72 0 512 512" width="512pt" xmlns="http://www.w3.org/2000/svg"><path d="m183.59375 0c-148.597656 0-168.414062 202.367188-123.183594 284.472656 58.414063 106.023438 57.839844 126.683594 76.25 127.007813 50.070313.875 43.582032.878906 93.652344.011719 18.210938-.320313 38.277344-40.273438 76.230469-135.996094 53.507812-134.941406-23.53125-275.496094-122.949219-275.496094zm0 0" fill="#7f8194"/><path d="m183.59375 0c-11.648438 0-22.503906 1.246094-32.601562 3.574219 85.453124 22.691406 144.207031 149.613281 95.707031 271.921875-37.953125 95.722656-58.019531 135.675781-76.230469 135.996094-6.355469.113281-11.796875.207031-16.5625.289062 32.089844.558594 33 .464844 76.40625-.289062 18.210938-.320313 38.277344-40.273438 76.230469-135.996094 53.507812-134.941406-23.53125-275.496094-122.949219-275.496094zm0 0" fill="#6e7081"/><path d="m227.664062 434.492188c0 13.4375-7.984374 24.328124-17.835937 24.328124h-52.230469c-9.851562 0-17.835937-10.890624-17.835937-24.328124v-160.832032c0-13.4375 7.984375-24.324218 17.835937-24.324218h52.230469c9.851563 0 17.835937 10.886718 17.835937 24.324218zm0 0" fill="#ffd0a4"/><path d="m366.417969 475.585938-24.171875-101.136719c-7.585938-24.984375-33.085938-56.589844-73.898438-56.589844h-40.667968l-37.894532 115.601563c-1.953125 5.949218-10.367187 5.945312-12.308594-.007813l-37.714843-115.59375h-40.875c-40.8125 0-63.460938 27.589844-73.898438 56.589844l-24.171875 101.136719c-4.441406 18.585937 9.769532 36.414062 29.027344 36.414062h307.550781c19.253907 0 33.464844-17.828125 29.023438-36.414062zm0 0" fill="#88dbc1"/><path d="m366.417969 475.585938-24.171875-101.136719c-7.585938-24.984375-33.085938-56.589844-73.898438-56.589844h-40.667968l-.023438.03125c40.050781.664063 65.101562 31.839844 72.609375 56.558594l24.167969 101.136719c4.441406 18.585937-9.769532 36.414062-29.027344 36.414062h41.988281c19.253907 0 33.464844-17.828125 29.023438-36.414062zm0 0" fill="#60c2a3"/><path d="m288.125 153.914062c-1.320312-.132812-2.636719.0625-3.925781.539063-.535157-6.574219-1.355469-13-2.453125-19.238281-.472656-2.683594-3.480469-4.046875-5.835938-2.679688-13.605468 7.886719-44.074218 20.632813-76.378906 1.328125-51.894531-31.007812-91.167969 20.210938-103.761719 39.921875-2.121093 3.316406-7.019531 3.058594-8.824219-.441406-3.121093-6.042969-5.46875-12.597656-7.082031-19.457031-.25 0-.503906.003906-.753906.027343-8.664063.882813-14.285156 15.378907-12.542969 32.382813 1.742188 17.007813 10.183594 30.070313 18.847656 29.191406.242188-.023437.476563-.0625.710938-.105469 10.660156 54.761719 43.390625 94.386719 97.496094 94.386719 54.101562 0 86.828125-39.625 97.492187-94.386719.234375.042969.46875.082032.710938.105469 8.664062.878907 17.105469-12.183593 18.847656-29.191406 1.738281-17.003906-3.878906-31.5-12.546875-32.382813zm0 0" fill="#ffe5c2"/><path d="m288.128906 153.914062c-1.324218-.132812-2.640625.0625-3.929687.539063-.535157-6.574219-1.355469-13-2.453125-19.238281-.472656-2.683594-3.480469-4.046875-5.835938-2.679688-4.539062 2.628906-10.957031 5.796875-18.691406 8.136719 5.046875 73.023437-18.378906 136.289063-76.4375 169.03125.945312.027344 1.882812.066406 2.839844.066406 54.101562 0 86.828125-39.625 97.492187-94.386719.234375.042969.472657.082032.710938.105469 8.664062.878907 17.109375-12.183593 18.847656-29.191406 1.738281-17.003906-3.878906-31.5-12.542969-32.382813zm0 0" fill="#ffd0a4"/><path d="m204.128906 476.070312c0-11.335937-9.183594-20.523437-20.511718-20.523437-11.328126 0-20.511719 9.1875-20.511719 20.523437 0 11.335938 9.183593 20.523438 20.511719 20.523438 11.328124 0 20.511718-9.1875 20.511718-20.523438zm0 0" fill="#60c2a3"/></svg>