<svg xmlns="http://www.w3.org/2000/svg" viewBox="0 0 222.59 222.59"><defs><style>.cls-1{fill:#2de115;}.cls-2{fill:#fff;}</style></defs><title>Asset 17</title><g id="Layer_2" data-name="Layer 2"><g id="Layer_1-2" data-name="Layer 1"><rect id="Rectangle_128-7" data-name="Rectangle 128-7" class="cls-1" width="222.59" height="222.59" rx="111"/><path id="Path_38" data-name="Path 38" class="cls-2" d="M169.9,124.26l-11-21.06V94.31a53.75,53.75,0,0,0-31.12-48.63,52.39,52.39,0,0,0-23-5.18,53.7,53.7,0,0,0-36.33,93.36V166.8a4.89,4.89,0,0,0,3.86,4.6l55.88,9.92A3.16,3.16,0,0,0,132,178.9a2.5,2.5,0,0,0,.07-.54v-15.7L147.67,165a11.27,11.27,0,0,0,11.27-11.27V133.89h5.18C170,133.89,172.72,129.6,169.9,124.26Zm-50.49-44,6,6a8.92,8.92,0,0,0-3.7,3.7l-4.3-4.3Zm-19.1-6.35v7.4L91.68,90a9,9,0,0,0-3.7-3.7ZM83.79,99.36A5.25,5.25,0,1,1,89,94.11a5.25,5.25,0,0,1-5.25,5.25ZM93.9,107.9,88,102a8.88,8.88,0,0,0,3.7-3.71l4.24,4.23Zm3.69,1.65L112,70.84q5.79,2.16,3.7,7.77l-14.45,38.77q-5.79-2.16-3.68-7.82Zm16.62,4.19v-7.41l8.64-8.63a8.92,8.92,0,0,0,3.7,3.7Zm15.37-14.38a5.25,5.25,0,1,1,5.26-5.25,5.25,5.25,0,0,1-5.26,5.25Z"/></g></g></svg>