<svg xmlns="http://www.w3.org/2000/svg" viewBox="0 0 222.59 222.59"><defs><style>.cls-1{fill:#0264fb;}.cls-2{fill:#fff;}</style></defs><title>Asset 16</title><g id="Layer_2" data-name="Layer 2"><g id="Layer_1-2" data-name="Layer 1"><rect id="Rectangle_128-6" data-name="Rectangle 128-6" class="cls-1" width="222.59" height="222.59" rx="111"/><g id="Group_26-13" data-name="Group 26-13"><g id="Group_13" data-name="Group 13"><g id="Group_12-2" data-name="Group 12-2"><path id="Path_32" data-name="Path 32" class="cls-2" d="M101.77,132.61c-.37-.37-.63-.8-1-1.18a40,40,0,0,0-2.92,5.08,41.89,41.89,0,0,0,5.06-2.94C102.56,133.23,102.13,133,101.77,132.61Z"/></g></g><g id="Group_15" data-name="Group 15"><g id="Group_14" data-name="Group 14"><path id="Path_33" data-name="Path 33" class="cls-2" d="M132.08,102.31A18.47,18.47,0,0,0,106,128.43a18.11,18.11,0,0,0,2.09,1.71A154.92,154.92,0,0,0,121.63,118a153.56,153.56,0,0,0,12.16-13.59A20,20,0,0,0,132.08,102.31Z"/></g></g><g id="Group_17" data-name="Group 17"><g id="Group_16" data-name="Group 16"><path id="Path_34" data-name="Path 34" class="cls-2" d="M96.94,51.3v19l7.38-4.92,7.39,4.92v-19Z"/></g></g><g id="Group_19" data-name="Group 19"><g id="Group_18" data-name="Group 18"><rect id="Rectangle_247" data-name="Rectangle 247" class="cls-2" x="62.08" y="51.3" width="14.78" height="120"/></g></g><g id="Group_21" data-name="Group 21"><g id="Group_20" data-name="Group 20"><path id="Path_35" data-name="Path 35" class="cls-2" d="M136.65,111.48c-4,4.75-8,8.9-10.3,11.2s-6.47,6.3-11.22,10.3a18.43,18.43,0,0,0,21.52-21.5Z"/></g></g><g id="Group_23" data-name="Group 23"><g id="Group_22" data-name="Group 22"><path id="Path_36" data-name="Path 36" class="cls-2" d="M135.16,97.06c.38.34.81.6,1.18,1s.62.79,1,1.17a41.68,41.68,0,0,0,2.94-5.06A40.07,40.07,0,0,0,135.16,97.06Z"/></g></g><g id="Group_25" data-name="Group 25"><g id="Group_24" data-name="Group 24"><path id="Path_37" data-name="Path 37" class="cls-2" d="M118.91,51.3V82.47L105,73.1,91.18,82.47V51.3H84.24v120h76.27V51.3Zm17.9,81.43a23.82,23.82,0,0,1-26.93,5.06c-4.92,3.55-9.85,6.3-13.5,6.3a4.92,4.92,0,0,1-3.69-1.42c-3-3.07-1.51-8.52,4.81-17.43a24.87,24.87,0,0,1,5-27.31,24,24,0,0,1,26.93-5.06c8.79-6.42,14.16-8,17.2-4.88,3.39,3.44.12,10.48-4.8,17.47a24.86,24.86,0,0,1-5,27.26Z"/></g></g></g></g></g></svg>